<?xml version="1.0" encoding="UTF-8"?>
<svg id="Lager_1" data-name="Lager 1"
  xmlns="http://www.w3.org/2000/svg" viewBox="0 0 68.03 64.63">
  <defs>
    <style>
      .cls-1 {
        fill: #FFF;
        stroke-width: 0px;
      }
    </style>
  </defs>
  <g>
    <path class="cls-1" d="M58.35.16h-4.32v12.72L44.64.16h-3.62v20.96h-3.42v21.12h4.37v-6.08h3.8c1.69,0,3.15-.3,4.37-.91,1.22-.6,2.17-1.47,2.83-2.6.67-1.13,1-2.46,1-4.01s-.33-2.91-1-4.04c-.67-1.13-1.61-1.99-2.83-2.6-1.22-.6-2.68-.91-4.37-.91h-.44v-12.72l9.42,12.72,2.86,3.92v17.21h4.37v-17.21h6.04v-3.92h-9.69V.16ZM45.54,25.04c1.35,0,2.36.32,3.02.95.67.63,1,1.52,1,2.67s-.33,2.01-1,2.64c-.67.63-1.67.95-3.02.95h-3.56v-7.21h3.56Z"/>
    <path class="cls-1" d="M18.02,38.59l-2.81-2.8c-.65.82-1.37,1.43-2.16,1.83-.79.4-1.65.6-2.59.6-.88,0-1.69-.16-2.43-.47-.74-.31-1.38-.76-1.92-1.34-.54-.58-.96-1.28-1.25-2.07-.3-.8-.45-1.68-.45-2.66s.15-1.86.45-2.66c.3-.8.72-1.49,1.25-2.07.54-.58,1.18-1.03,1.92-1.34.74-.31,1.55-.47,2.43-.47.93,0,1.8.2,2.59.6.71.36,1.35.88,1.94,1.55l.22.28v-12.9c-.65.82-1.37,1.42-2.16,1.82-.79.4-1.65.6-2.59.6-.88,0-1.69-.16-2.43-.47-.74-.31-1.38-.76-1.92-1.34-.54-.58-.96-1.27-1.25-2.07-.3-.8-.45-1.68-.45-2.65s.15-1.85.45-2.65c.3-.8.72-1.49,1.25-2.07.54-.58,1.18-1.03,1.92-1.34.74-.31,1.55-.47,2.43-.47.93,0,1.8.2,2.59.6.79.4,1.51,1,2.16,1.79l2.81-2.8c-.9-1.18-2.01-2.08-3.33-2.7-1.32-.61-2.8-.92-4.44-.92-1.47,0-2.83.26-4.07.77-1.24.52-2.33,1.25-3.25,2.2-.93.95-1.65,2.07-2.16,3.35-.51,1.28-.77,2.69-.77,4.22s.26,2.94.77,4.22c.51,1.28,1.23,2.4,2.14,3.35.92.95,2,1.69,3.25,2.2,1.25.51,2.6.77,4.06.77,0,0,.02,0,.03,0h0c-1.47,0-2.83.26-4.07.78-1.24.52-2.33,1.25-3.25,2.21-.93.95-1.65,2.07-2.16,3.36-.51,1.29-.77,2.7-.77,4.24s.26,2.95.77,4.24c.51,1.29,1.23,2.41,2.14,3.36.92.95,2,1.69,3.25,2.21,1.25.52,2.6.77,4.06.77,1.65,0,3.14-.31,4.46-.93,1.32-.62,2.43-1.53,3.33-2.72Z"/>
    <rect class="cls-1" x="61.58" y="11.7" width="6.45" height="6.45"/>
    <path class="cls-1" d="M24.23,33.42h9.93v-3.81h-9.93v-4.59h9.93v-5.77c.48-.34.94-.72,1.36-1.14.93-.94,1.65-2.06,2.17-3.35.52-1.29.78-2.7.78-4.21s-.26-2.94-.78-4.21c-.52-1.27-1.25-2.38-2.17-3.34-.93-.95-2.01-1.69-3.26-2.21-1.25-.52-2.62-.79-4.11-.79s-2.84.26-4.1.79c-1.26.52-2.36,1.26-3.29,2.21-.94.95-1.66,2.07-2.17,3.35-.51,1.28-.77,2.68-.77,4.2s.26,2.91.77,4.2c.51,1.28,1.23,2.4,2.16,3.35.93.95,2.02,1.69,3.29,2.21,1.27.52,2.65.79,4.14.79.01,0,.03,0,.04,0h0s-8.32,0-8.32,0v21.15h14.62v-3.93h-10.28v-4.89ZM28.13,17.07c-.85,0-1.63-.16-2.35-.47-.72-.31-1.34-.76-1.88-1.34-.53-.58-.94-1.28-1.24-2.08-.3-.81-.44-1.68-.44-2.64s.15-1.85.44-2.65c.3-.8.72-1.49,1.25-2.07.54-.58,1.16-1.03,1.87-1.34.71-.31,1.49-.47,2.33-.47s1.63.16,2.35.47c.72.31,1.34.76,1.88,1.34.53.58.94,1.27,1.24,2.07.3.8.45,1.68.45,2.65s-.15,1.86-.45,2.65c-.3.8-.71,1.49-1.25,2.07-.54.58-1.16,1.03-1.88,1.34-.71.31-1.49.47-2.33.47Z"/>
  </g>
  <g>
    <rect class="cls-1" x="12.73" y="46.23" width="1.06" height="18.32"/>
    <rect class="cls-1" x="32.77" y="46.23" width="1.06" height="18.32"/>
    <polygon class="cls-1" points="50.07 64.55 49.22 64.55 37.87 48.43 37.87 64.55 36.81 64.55 36.81 46.23 37.66 46.23 49 62.36 49 46.23 50.07 46.23 50.07 64.55"/>
    <polygon class="cls-1" points="17.62 64.55 16.77 64.55 16.77 46.23 17.83 46.23 17.83 62.36 29.17 46.23 30.5 46.23 17.62 64.55"/>
    <path class="cls-1" d="M60.96,64.63c-1.23,0-2.39-.23-3.44-.7-1.05-.46-1.97-1.12-2.75-1.96-.77-.83-1.38-1.82-1.81-2.93-.43-1.11-.64-2.34-.64-3.65s.22-2.54.64-3.65c.43-1.11,1.04-2.1,1.81-2.93.78-.84,1.7-1.49,2.74-1.96,1.05-.46,2.2-.7,3.44-.7,1.12,0,2.19.19,3.18.58,1,.39,1.87.98,2.59,1.77l.17.19-.65.83-.24-.25c-.7-.74-1.48-1.27-2.31-1.57-1.78-.64-3.99-.63-5.73.16-.92.41-1.73.99-2.41,1.73h0c-.68.74-1.22,1.61-1.59,2.59-.38.98-.57,2.07-.57,3.22s.19,2.24.57,3.22c.37.98.91,1.85,1.59,2.58.68.73,1.49,1.32,2.41,1.73,1.75.78,3.95.81,5.75.13.74-.28,1.43-.73,2.05-1.35v-6.44h1.04v6.9l-.08.09c-.72.79-1.59,1.39-2.59,1.79-.99.39-2.06.59-3.18.59Z"/>
    <polygon class="cls-1" points="9.93 64.55 1.13 64.55 1.13 46.23 2.2 46.23 2.2 63.47 9.93 63.49 9.93 64.55"/>
  </g>
</svg>