<?xml version="1.0" encoding="UTF-8"?>
<svg id="Lager_1" data-name="Lager 1" xmlns="http://www.w3.org/2000/svg" viewBox="0 0 179.24 179.24">
  <defs>
    <style>
      .cls-1 {
        fill: #1d1d1b;
        stroke-width: 0px;
      }
    </style>
  </defs>
  <g>
    <path class="cls-1" d="M38.49,146.64l1.7.58c-.4.88-.19,1.8.51,2.38.61.51,1.55.6,2.08-.04.41-.49.48-1.22.06-2.2-.21-.5-.38-.95-.56-1.43-.48-1.18-.35-2.37.34-3.19.98-1.17,2.54-1.31,3.86-.22,1.11.92,1.29,1.99.93,3.3l-1.77-.39c.19-.56.25-1.16-.27-1.59-.44-.37-1.01-.34-1.31.02-.32.38-.39.81-.02,1.71.11.29.46,1.15.59,1.47.56,1.46.42,2.66-.46,3.7-1.08,1.29-2.96,1.53-4.55.21-1.47-1.23-1.78-2.62-1.14-4.32Z"/>
    <path class="cls-1" d="M52.47,147.33l1.57.94-2.21,3.71,5.2-1.93,1.88,1.12-6.03,2.25.76,6.83-1.96-1.17-.62-5.84-2.41,4.03-1.57-.94,5.38-9.02Z"/>
    <path class="cls-1" d="M64.49,153.59l1.82.7-.14,11.2-1.85-.71.04-2.51-3.83-1.48-1.66,1.88-1.82-.7,7.43-8.38ZM64.44,160.5l.2-4.58-2.97,3.51,2.77,1.07Z"/>
    <path class="cls-1" d="M73.4,156.53l6.03,1.24-.35,1.68-4.23-.87-.5,2.44,3.94.81-.35,1.67-3.94-.81-.93,4.5-1.79-.37,2.12-10.29Z"/>
    <path class="cls-1" d="M83.58,158.23l6.14.3-.08,1.71-4.31-.21-.12,2.49,4.01.19-.08,1.71-4.01-.2-.22,4.58-1.83-.09.51-10.49Z"/>
    <path class="cls-1" d="M93.98,158.31l6.13-.56.16,1.7-4.3.4.23,2.48,4-.37.16,1.7-4,.37.26,2.87,4.3-.4.16,1.7-6.12.56-.96-10.46Z"/>
    <path class="cls-1" d="M104.35,156.89l3.49-.95c1.81-.49,3.31.26,3.76,1.93.37,1.35-.33,2.61-1.63,3.26l4.17,3.98-2,.54-4.04-3.94-.49.13,1.28,4.69-1.77.48-2.76-10.13ZM108.76,159.82c.9-.24,1.23-.86,1.06-1.47-.17-.64-.78-.97-1.66-.73l-1.59.43.6,2.2,1.59-.43Z"/>
    <path class="cls-1" d="M115.11,153.46l1.69-.71,4.1,9.67-1.69.71-4.1-9.67Z"/>
    <path class="cls-1" d="M121.33,150.59l5.3-3.12.87,1.47-3.72,2.19,1.26,2.15,3.46-2.04.87,1.47-3.46,2.04,1.46,2.48,3.72-2.19.87,1.47-5.3,3.12-5.33-9.05Z"/>
    <path class="cls-1" d="M132.52,145.21l-2.11,1.73-1.08-1.32,5.81-4.77,1.09,1.32-2.29,1.87,5.58,6.8-1.42,1.16-5.58-6.8Z"/>
  </g>
  <g>
    <path class="cls-1" d="M40.95,27.06l2.18-1.54c2.97-2.09,6-1.58,7.78.94,1.8,2.56,1.11,5.64-1.74,7.64l-2.18,1.54-6.04-8.58ZM48.3,32.63c1.9-1.34,2.38-3.27,1.09-5.09-1.29-1.83-3.24-2.05-5.16-.69l-.8.56,4.07,5.79.8-.56Z"/>
    <path class="cls-1" d="M53.63,19.01l5.57-2.6.72,1.55-3.91,1.83,1.05,2.26,3.64-1.7.72,1.55-3.64,1.7,1.22,2.61,3.91-1.83.72,1.55-5.57,2.6-4.44-9.51Z"/>
    <path class="cls-1" d="M67.27,15.39l-2.62.75-.47-1.64,7.22-2.07.47,1.64-2.84.82,2.43,8.45-1.76.5-2.43-8.45Z"/>
    <path class="cls-1" d="M83.28,10.52l1.96-.04,2.79,8.07,2.44-8.18,1.98-.04-3.37,10.57-2.01.04-3.8-10.42Z"/>
    <path class="cls-1" d="M97.95,10.84l1.82.21-1.22,10.43-1.82-.21,1.22-10.43Z"/>
    <path class="cls-1" d="M106.38,12.16l1.78.44-2.11,8.54,3.83.94-.41,1.66-5.61-1.38,2.52-10.2Z"/>
    <path class="cls-1" d="M117.53,15.37l2.45,1.06c3.33,1.45,4.48,4.3,3.25,7.13-1.25,2.88-4.24,3.88-7.43,2.5l-2.45-1.06,4.18-9.63ZM116.6,24.55c2.13.93,4.03.33,4.92-1.72s.06-3.83-2.1-4.77l-.89-.39-2.82,6.49.89.39Z"/>
    <path class="cls-1" d="M132.99,23.33l1.62,1.09-2.62,10.9-1.64-1.11.59-2.44-3.41-2.3-2.04,1.47-1.62-1.09,9.11-6.52ZM131.4,30.05l1.21-4.43-3.68,2.77,2.46,1.66Z"/>
  </g>
  <path class="cls-1" d="M89.62,179.24C40.2,179.24,0,139.04,0,89.62S40.2,0,89.62,0s89.62,40.2,89.62,89.62-40.2,89.62-89.62,89.62ZM89.62,1.5C41.03,1.5,1.5,41.03,1.5,89.62s39.53,88.12,88.12,88.12,88.12-39.53,88.12-88.12S138.21,1.5,89.62,1.5Z"/>
  <g>
    <path class="cls-1" d="M81.93,59.72c-.12,0-.23-.03-.34-.08-.37-.19-.51-.64-.32-1.01l6.84-13.23c.19-.37.64-.51,1.01-.32.37.19.51.64.32,1.01l-6.84,13.23c-.13.26-.4.41-.67.41Z"/>
    <path class="cls-1" d="M96.01,59.77c-.27,0-.52-.14-.66-.39l-7.24-13.28c-.2-.36-.06-.82.3-1.02.36-.2.82-.06,1.02.3l7.24,13.28c.2.36.06.82-.3,1.02-.11.06-.24.09-.36.09Z"/>
  </g>
  <g>
    <path class="cls-1" d="M131.65,129.24c-.19,0-.39-.07-.54-.21L47.36,50.72c-.32-.3-.34-.8-.04-1.12.3-.32.8-.34,1.12-.04l83.75,78.3c.32.3.34.8.04,1.12-.16.17-.37.25-.58.25Z"/>
    <path class="cls-1" d="M48.13,129.24c-.21,0-.42-.08-.58-.25-.3-.32-.28-.82.04-1.12l83.75-78.3c.32-.3.82-.28,1.12.04.3.32.28.82-.04,1.12l-83.75,78.3c-.15.14-.35.21-.54.21Z"/>
  </g>
  <path class="cls-1" d="M95.3,136.16c-.11,0-.22,0-.33-.01-2.33-.17-4.41-1.63-5.44-3.59-1.13,2.16-3.18,3.51-5.66,3.6-2.19.07-4.75-.52-5.92-3.35-.2.25-.43.49-.68.72-1.63,1.43-4.15,2.08-6.25,1.62-.4-.09-.66-.49-.57-.89.09-.41.49-.66.89-.57,1.64.36,3.67-.17,4.95-1.28.53-.47,1.15-1.24,1.08-2.26,0-.01,0-.02,0-.03-.03-.41.28-.77.69-.8.41-.03.77.27.81.69v.04c.26,3.27,1.83,4.74,4.97,4.63,2.56-.09,4.54-1.95,5.04-4.75.07-.38.41-.64.79-.62.38.03.68.33.7.71.11,2.38,2.23,4.47,4.73,4.65,1.07.08,2.17-.38,3.06-1.26.79-.78,1.28-1.79,1.36-2.77-.02-.23-.02-.46.01-.68.05-.38.41-.67.77-.65.38.01.7.32.72.7.01.19.01.38,0,.58.08.57.43,1.31,1.06,1.92,1.04,1.02,2.55,1.44,4.25,1.17.42-.07.79.22.86.62.06.41-.22.79-.62.86-2.18.35-4.15-.22-5.54-1.58-.23-.23-.45-.48-.63-.74-.3.59-.7,1.14-1.19,1.63-1.1,1.1-2.5,1.71-3.89,1.71Z"/>
  <path class="cls-1" d="M95.3,124.88c-.11,0-.22,0-.33-.01-2.33-.17-4.41-1.63-5.44-3.59-1.13,2.16-3.18,3.51-5.66,3.6-2.19.07-4.75-.52-5.92-3.35-.2.25-.43.49-.68.72-1.63,1.43-4.15,2.08-6.25,1.62-.4-.09-.66-.49-.57-.89.09-.4.49-.66.89-.57,1.64.36,3.67-.17,4.94-1.28.53-.47,1.15-1.24,1.08-2.26,0-.01,0-.02,0-.03-.03-.41.28-.77.69-.8.41-.03.77.27.81.69v.04c.26,3.27,1.86,4.73,4.97,4.63,2.56-.09,4.54-1.95,5.04-4.75.07-.38.41-.64.79-.62.38.03.68.33.7.71.11,2.38,2.23,4.47,4.73,4.65,1.07.08,2.17-.38,3.06-1.26.79-.78,1.28-1.79,1.36-2.77-.02-.23-.02-.46.01-.68.05-.38.38-.68.77-.65.38.01.7.32.72.7.01.19.01.38,0,.58.08.57.43,1.31,1.06,1.93,1.04,1.02,2.55,1.44,4.25,1.17.42-.06.79.22.86.62.06.41-.22.79-.62.86-2.18.35-4.15-.22-5.54-1.58-.23-.23-.45-.48-.63-.74-.3.59-.7,1.14-1.19,1.63-1.1,1.1-2.5,1.71-3.89,1.71Z"/>
  <path class="cls-1" d="M140.23,78.57c-.19,0-.38-.07-.53-.22l-3.31-3.31c-.29-.29-.29-.77,0-1.06l3.31-3.31c.29-.29.77-.29,1.06,0l3.31,3.31c.29.29.29.77,0,1.06l-3.31,3.31c-.15.15-.34.22-.53.22ZM137.98,74.51l2.25,2.25,2.25-2.25-2.25-2.25-2.25,2.25Z"/>
  <path class="cls-1" d="M129.38,93.16c-.19,0-.38-.07-.53-.22l-3.31-3.31c-.29-.29-.29-.77,0-1.06l3.31-3.31c.28-.28.78-.28,1.06,0l3.31,3.31c.29.29.29.77,0,1.06l-3.31,3.31c-.15.15-.34.22-.53.22ZM127.13,89.1l2.25,2.25,2.25-2.25-2.25-2.25-2.25,2.25Z"/>
  <path class="cls-1" d="M146.76,99.98c-.2,0-.39-.08-.53-.22l-3.31-3.31c-.29-.29-.29-.77,0-1.06l3.31-3.31c.29-.29.77-.29,1.06,0l3.31,3.31c.29.29.29.77,0,1.06l-3.31,3.31c-.14.14-.33.22-.53.22ZM144.51,95.92l2.25,2.25,2.25-2.25-2.25-2.25-2.25,2.25Z"/>
  <g>
    <path class="cls-1" d="M43.56,100.06c-.41,0-.75-.34-.75-.75v-24.8c0-.41.34-.75.75-.75s.75.34.75.75v24.8c0,.41-.34.75-.75.75Z"/>
    <path class="cls-1" d="M47.67,80.58h-8.21c-.41,0-.75-.34-.75-.75s.34-.75.75-.75h8.21c.41,0,.75.34.75.75s-.34.75-.75.75Z"/>
    <path class="cls-1" d="M49.95,85.8h-12.92c-.41,0-.75-.34-.75-.75s.34-.75.75-.75h12.92c.41,0,.75.34.75.75s-.34.75-.75.75Z"/>
    <path class="cls-1" d="M51.16,91.03h-15.26c-.41,0-.75-.34-.75-.75s.34-.75.75-.75h15.26c.41,0,.75.34.75.75s-.34.75-.75.75Z"/>
  </g>
</svg>