<?xml version="1.0" encoding="UTF-8"?>
<svg id="Lager_1" data-name="Lager 1" xmlns="http://www.w3.org/2000/svg" viewBox="0 0 194.92 177.4">
  <defs>
    <style>
      .cls-1 {
        fill: #1d1d1b;
        stroke-width: 0px;
      }
    </style>
  </defs>
  <g id="logotype">
    <g id="text">
      <path class="cls-1" d="M21.87,177.4v-9.09c0-2.38-.81-4-2.43-4.88-1.17-.64-3.06-.96-5.66-.96s-4.54.32-5.68.96c-1.62.87-2.43,2.49-2.43,4.88v9.09h-3.31v-18.25h3.31v1.9c1.91-1.27,4.61-1.9,8.11-1.9,7.6,0,11.39,3.05,11.39,9.15v9.1h-3.31Z"/>
      <path class="cls-1" d="M51.44,168.31c0,.21,0,.45-.03.73-.02.28-.05.58-.1.92h-19.23c.3,1.73,1.31,2.91,3.02,3.56,1.12.42,2.77.63,4.92.63,1.8,0,3.15-.11,4.03-.33,1.48-.36,2.58-1.08,3.3-2.16l3.02,1.44c-1.68,2.87-5.13,4.3-10.35,4.3-7.59,0-11.39-3.03-11.39-9.1s3.8-9.15,11.39-9.15,11.41,3.05,11.41,9.16ZM47.99,166.65c-.33-1.73-1.34-2.91-3.04-3.56-1.11-.42-2.75-.63-4.92-.63s-3.82.21-4.92.63c-1.7.61-2.71,1.79-3.02,3.56h15.91Z"/>
      <path class="cls-1" d="M77.78,177.4h-3.55l-4.8-13.27-4.83,13.27h-3.53l-8.47-18.25h3.59l6.47,13.9,5.12-13.9h3.37l5.04,13.9,6.49-13.9h3.62l-8.51,18.25Z"/>
      <path class="cls-1" d="M103.9,177.4v-24.25h3.31v24.25h-3.31Z"/>
      <path class="cls-1" d="M112.9,156.47v-3.31h3.31v3.31h-3.31ZM112.9,177.4v-18.25h3.31v18.25h-3.31Z"/>
      <path class="cls-1" d="M141.4,177.4v-9.09c0-2.38-.81-4-2.43-4.88-1.17-.64-3.06-.96-5.66-.96s-4.54.32-5.68.96c-1.62.87-2.43,2.49-2.43,4.88v9.09h-3.31v-18.25h3.31v1.9c1.91-1.27,4.61-1.9,8.11-1.9,7.6,0,11.39,3.05,11.39,9.15v9.1h-3.31Z"/>
      <path class="cls-1" d="M170.97,168.31c0,.21,0,.45-.03.73s-.05.58-.1.92h-19.23c.3,1.73,1.31,2.91,3.02,3.56,1.12.42,2.77.63,4.92.63,1.8,0,3.15-.11,4.03-.33,1.48-.36,2.58-1.08,3.3-2.16l3.02,1.44c-1.68,2.87-5.13,4.3-10.35,4.3-7.59,0-11.39-3.03-11.39-9.1s3.8-9.15,11.39-9.15,11.41,3.05,11.41,9.16ZM167.52,166.65c-.33-1.73-1.34-2.91-3.04-3.56-1.11-.42-2.75-.63-4.92-.63s-3.82.21-4.92.63c-1.7.61-2.71,1.79-3.02,3.56h15.91Z"/>
      <path class="cls-1" d="M192.3,161.36v-5.72l-3.3,5.72h-1.28l-3.29-5.72v5.72h-1.2v-7h-3.81v7h-1.2v-7h-4v-1.2h10.17l3.99,6.9,3.98-6.9h1.16v8.2h-1.2Z"/>
    </g>
    <g id="figure">
      <path class="cls-1" d="M2.5,2.5h42.52l24.45,36.67c3.79,5.69,9.57,5.35,9.57-2.73V2.5h42.52v90.71c0,6.22,2.28,8.5,8.5,8.5h62.36v42.52h-113.39l-24.45-36.67c-3.8-5.69-9.57-5.35-9.57,2.73v33.94H2.5V2.5Z"/>
      <path class="cls-1" d="M2.5,5h42.52c-.84,0-1.62-.42-2.08-1.11l24.45,36.67c2.58,3.88,6.15,5.69,9.31,4.73,1.45-.44,4.84-2.18,4.84-8.85V2.5c0,1.38-1.12,2.5-2.5,2.5h42.52c-1.38,0-2.5-1.12-2.5-2.5v90.71c0,7.61,3.39,11,11,11h62.36c-1.38,0-2.5-1.12-2.5-2.5v42.52c0-1.38,1.12-2.5,2.5-2.5h-113.39c.84,0,1.62.42,2.08,1.11l-24.45-36.67c-2.58-3.88-6.15-5.69-9.31-4.73-1.45.44-4.84,2.18-4.84,8.85v33.94c0-1.38,1.12-2.5,2.5-2.5H2.5c1.38,0,2.5,1.12,2.5,2.5V2.5c0,1.38-1.12,2.5-2.5,2.5ZM2.5,146.73h42.52c1.38,0,2.5-1.12,2.5-2.5v-33.94c0-2.52.67-3.87,1.29-4.06.65-.2,2.23.52,3.7,2.72l24.45,36.67c.46.7,1.24,1.11,2.08,1.11h113.39c1.38,0,2.5-1.12,2.5-2.5v-42.52c0-1.38-1.12-2.5-2.5-2.5h-62.36c-4.83,0-6-1.18-6-6V2.5c0-1.38-1.12-2.5-2.5-2.5h-42.52c-1.38,0-2.5,1.12-2.5,2.5v33.94c0,2.52-.67,3.87-1.29,4.06-.65.2-2.23-.52-3.7-2.72L47.1,1.11c-.46-.7-1.24-1.11-2.08-1.11H2.5C1.12,0,0,1.12,0,2.5v141.73c0,1.38,1.12,2.5,2.5,2.5Z"/>
    </g>
  </g>
</svg>