<?xml version="1.0" encoding="UTF-8"?>
<svg id="Lager_1" data-name="Lager 1" xmlns="http://www.w3.org/2000/svg" viewBox="0 0 409.2 185.95">
  <defs>
    <style>
      .cls-1 {
        fill: #000;
        stroke-width: 0px;
      }
    </style>
  </defs>
  <polygon class="cls-1" points="126.74 43.48 126.74 35.99 126.74 31.2 142.59 31.2 142.59 20.27 126.74 20.27 126.74 11.67 147.75 11.67 147.75 .74 114.7 .74 114.7 19.6 114.7 54.41 140.27 54.41 148.48 54.41 148.48 43.48 132.24 43.48 126.74 43.48"/>
  <path class="cls-1" d="M298.73,66.31h-8.38l-.77,1.8-17.56,40.98-3.09,7.21-1.58,3.68h12.67l2.87-6.74,1.99-4.68h19.32l4.86,11.42h12.67l-21.95-51.21-1.06-2.46ZM289.53,97.63l4.97-11.57,4.97,11.57h-9.95Z"/>
  <polygon class="cls-1" points="255.94 174.28 255.94 172.12 255.94 162 271.79 162 271.79 158.78 271.79 151.07 255.94 151.07 255.94 142.47 276.95 142.47 276.95 131.54 243.91 131.54 243.91 156.97 243.91 162.33 243.91 185.22 272.05 185.22 277.68 185.22 277.68 174.28 258.61 174.28 255.94 174.28"/>
  <path class="cls-1" d="M325.72,160.98c1.55-.67,2.94-1.59,4.15-2.73,3.11-2.95,4.9-7.07,4.9-11.3s-1.78-8.35-4.91-11.31c-3.06-2.8-6.87-4.1-11.98-4.1h-19.84v53.67h12.04v-22.85h2.07l18.35,22.85h15.01l-18.59-22.77-1.19-1.46ZM321.53,150.23c-.54.59-1.36,1.21-4.24,1.21h-7.21v-8.96h7.21c2.69,0,3.63.62,4.24,1.29.74.8,1.2,2.05,1.2,3.27s-.46,2.4-1.2,3.2Z"/>
  <polygon class="cls-1" points="397.16 131.54 397.16 163.36 369.95 131.54 361.42 131.54 361.42 164.69 361.42 185.22 373.46 185.22 373.46 165.47 373.46 153.39 384.4 166.18 400.67 185.22 409.2 185.22 409.2 167.8 409.2 131.54 397.16 131.54"/>
  <path class="cls-1" d="M24.01,21.37c-4.98-1.98-8.03-3.32-8.03-5.89,0-3.6,4.35-4.56,6.91-4.56,2.9,0,6.2,1.25,8.21,3.11l.88.82,6.43-9.18-.82-.61C32.93,1.61,27.98,0,22.01,0,13.25,0,3.94,5.45,3.94,15.56c0,5.43,2.56,9.56,7.81,12.62,2.21,1.29,4.62,2.24,6.96,3.16,4.84,1.91,9.03,3.56,9.03,7.43,0,3.2-2.66,5.44-6.47,5.44-4.09,0-8.35-1.99-11.39-5.33l-.75-.83-8,8.36.79.72c5.72,5.24,12.41,8.01,19.35,8.01,2.81,0,5.45-.55,7.82-1.51,4.72-1.92,8.32-5.52,9.86-10.02.54-1.57.83-3.25.83-5,0-10.99-8.75-14.46-15.77-17.25Z"/>
  <polygon class="cls-1" points="55.01 .74 55.01 11.67 68.64 11.67 68.64 13.47 68.64 54.41 80.68 54.41 80.68 11.67 94.32 11.67 94.32 .74 81.19 .74 55.01 .74"/>
  <polygon class="cls-1" points="205.72 32.56 178.5 .74 169.98 .74 169.98 54.41 182.01 54.41 182.01 22.59 209.23 54.41 217.75 54.41 217.75 .74 205.72 .74 205.72 32.56"/>
  <polygon class="cls-1" points="35.74 66.31 35.74 85.84 12.04 85.84 12.04 66.31 0 66.31 0 119.98 12.04 119.98 12.04 96.77 33.13 96.77 35.74 96.77 35.74 119.98 47.78 119.98 47.78 79.48 47.78 66.44 47.78 66.31 47.3 66.31 35.74 66.31"/>
  <path class="cls-1" d="M103.43,81.3v16.63c0,4.07-.97,6.87-3.07,8.83-2.02,1.95-4.87,3.02-8.04,3.02s-6.03-1.07-8.06-3.04c-2.09-1.94-3.06-4.74-3.06-8.82v-31.63h-12.04v30.89c0,7.87,2.28,13.74,6.98,17.95,4.04,3.59,9.78,5.57,16.17,5.57s12.13-1.98,16.17-5.57c4.7-4.21,6.98-10.08,6.98-17.95v-30.89h-12.04v14.99Z"/>
  <path class="cls-1" d="M159.24,96.14v.63h13.27v9.57c-3.02,2.29-6.54,3.45-10.45,3.45-9.45,0-16.57-7.15-16.57-16.64,0-.21.02-.41.03-.62.31-9.03,7.26-16.02,16.1-16.02,4.38,0,8.56,1.78,11.79,5l.76.76,7.86-8.31-.19-.19-.55-.53c-5.1-4.94-12.06-7.66-19.59-7.66-.41,0-.82.01-1.23.03-14.2.54-25.06,10.38-26.77,23.82-.15,1.22-.24,2.46-.24,3.73,0,15.72,12.2,27.57,28.39,27.57,9.17,0,17.36-3.74,22.49-10.27l.22-.28v-24.32h-25.3v10.3Z"/>
  <path class="cls-1" d="M229.04,96.14v.63h13.27v9.57c-3.02,2.29-6.54,3.45-10.45,3.45-9.45,0-16.57-7.15-16.57-16.64,0-.21.02-.41.03-.62.31-9.03,7.26-16.02,16.1-16.02,4.38,0,8.56,1.78,11.79,5l.76.76,7.86-8.31-.19-.19-.55-.53c-5.1-4.94-12.06-7.66-19.59-7.66-.41,0-.82.01-1.23.03-14.2.54-25.06,10.38-26.77,23.82-.15,1.22-.24,2.46-.24,3.73,0,15.72,12.2,27.57,28.39,27.57,9.17,0,17.36-3.74,22.49-10.27l.22-.28v-24.32h-25.3v10.3Z"/>
  <path class="cls-1" d="M363.45,95.75c1.55-.67,2.94-1.59,4.15-2.73,3.11-2.95,4.9-7.07,4.9-11.3,0-2.87-.84-5.67-2.34-8.11-.71-1.16-1.56-2.24-2.57-3.2-3.06-2.8-6.87-4.1-11.98-4.1h-19.84v53.67h12.04v-22.85h2.07l16.13,20.08,2.22,2.76h15.01l-10.01-12.26-9.78-11.98ZM359.26,85c-.54.59-1.36,1.21-4.24,1.21h-7.21v-8.96h7.21c2.69,0,3.63.62,4.24,1.29.74.8,1.2,2.05,1.2,3.27s-.46,2.4-1.2,3.2Z"/>
  <path class="cls-1" d="M37.62,136.61c-4.69-3.46-10.53-5.07-18.38-5.07H1.98v53.67h17.26c7.85,0,13.69-1.61,18.38-5.07,6.68-4.97,10.66-13.11,10.66-21.77,0-5.37-1.53-10.53-4.29-14.87-1.69-2.66-3.84-5.01-6.38-6.9ZM32.72,168.93c-2.87,3.6-6.92,5.35-12.37,5.35h-6.32v-31.81h6.32c5.46,0,9.51,1.75,12.38,5.36,2.28,2.85,3.53,6.59,3.53,10.55s-1.25,7.7-3.53,10.55Z"/>
  <path class="cls-1" d="M90.02,130.8c-10.97,0-20.09,5.62-24.7,14.26-2.08,3.9-3.25,8.42-3.25,13.31,0,15.72,12.01,27.57,27.94,27.57s27.94-11.85,27.94-27.57c0-3.56-.62-6.93-1.76-10-3.89-10.48-13.86-17.57-26.18-17.57ZM90.02,175.02c-8.92,0-15.91-7.31-15.91-16.64,0-4.98,2-9.38,5.22-12.4,2.81-2.64,6.53-4.24,10.69-4.24,4.89,0,9.18,2.2,12.08,5.72,2.39,2.9,3.83,6.7,3.83,10.92,0,9.33-6.99,16.64-15.9,16.64Z"/>
  <polygon class="cls-1" points="129.99 142.47 143.62 142.47 143.62 150.35 143.62 185.22 155.66 185.22 155.66 151.13 155.66 142.47 169.29 142.47 169.29 131.54 129.99 131.54 129.99 142.47"/>
  <polygon class="cls-1" points="185.63 131.54 185.63 142.47 199.26 142.47 199.26 153.97 199.26 185.22 211.3 185.22 211.3 154.75 211.3 142.47 220.91 142.47 224.93 142.47 224.93 131.54 207.47 131.54 185.63 131.54"/>
</svg>