<?xml version="1.0" encoding="UTF-8"?>
<svg id="Lager_1" data-name="Lager 1"
  xmlns="http://www.w3.org/2000/svg" viewBox="0 0 103.6 40">
  <defs>
    <style>
      .cls-1 {
        fill: #FFF;
        stroke-width: 0px;
      }
    </style>
  </defs>
  <path class="cls-1" d="M12.77,10.7c-1-.57-2-1.11-3-1.6-1-.49-1.85-1.05-2.56-1.68-.71-.63-1.06-1.36-1.06-2.2s.39-1.64,1.18-2.4c.79-.76,1.71-1.14,2.78-1.14,1.84,0,2.81.72,2.92,2.16l-.2,1.04c.03.4.31.6.86.6s.98-.21,1.3-.64c.32-.43.48-.96.48-1.6-.03-1.09-.57-1.9-1.64-2.44-1.07-.53-2.25-.8-3.56-.8-1.95,0-3.69.53-5.22,1.6-1.53,1.07-2.3,2.49-2.3,4.28,0,1.01.36,1.92,1.08,2.72.72.8,1.59,1.48,2.62,2.04,1.03.56,2.05,1.11,3.06,1.66,1.01.55,1.88,1.21,2.6,1.98.72.77,1.08,1.64,1.08,2.6,0,1.44-.53,2.67-1.58,3.68-1.05,1.01-2.32,1.52-3.8,1.52s-2.63-.36-3.44-1.08c-.81-.72-1.23-1.52-1.26-2.4,0-.77.45-1.16,1.36-1.16.48,0,.72-.2.72-.6-.08-.4-.29-.72-.64-.96-.35-.24-.73-.36-1.16-.36-1.09,0-1.93.35-2.52,1.04-.59.69-.88,1.47-.88,2.32,0,1.6.72,2.79,2.16,3.58,1.44.79,3.24,1.18,5.4,1.18s4.17-.68,6.04-2.04c1.87-1.36,2.8-3.22,2.8-5.6,0-1.15-.35-2.17-1.06-3.08-.71-.91-1.56-1.65-2.56-2.22Z"/>
  <path class="cls-1" d="M42.04,9.04c-1.11,0-2.05.53-2.82,1.6-.77,1.07-1.55,2.65-2.32,4.76.05-.91.13-1.6.24-2.08.56-1.01.84-2.05.84-3.1s-.19-1.58-.56-1.58-.88.27-1.52.82c-.64.55-1.11.99-1.4,1.34-.05.05-.1,1.37-.16,3.92-.11.22-.22.46-.33.72-.79,1.73-1.58,3.15-2.38,4.26-.8,1.11-1.43,1.67-1.88,1.7-.16,0-.24-.36-.24-1.08,0-3.86.15-6.17.44-6.92.19-.35.35-.91.5-1.68.15-.77.22-1.29.22-1.56,0-1.01-.19-1.52-.58-1.52s-.87.28-1.46.84c-.59.56-.95.95-1.1,1.16-.15.21-.34,1.65-.58,4.32-.83,2.11-1.65,3.69-2.48,4.76-.83,1.07-1.55,1.6-2.16,1.6-.51,0-.76-.79-.76-2.36s.2-3.59.6-6.04c.51-1.17.76-2.33.76-3.48,0-.32-.04-.53-.12-.64-.08-.11-.27-.16-.58-.16s-.8.26-1.48.78c-.68.52-1.15.91-1.42,1.18-.27.27-.4,1.83-.4,4.68l-.24,4.48c0,1.33.17,2.28.52,2.84.35.56,1.05.84,2.1.84s2.01-.47,2.86-1.42c.85-.95,1.71-2.33,2.56-4.14-.08,1.17-.12,2.24-.12,3.2s.09,1.53.28,1.72c.53.43,1.32.64,2.36.64,1.38,0,3.06-2.07,5.04-6.16-.07,2.25-.18,4.36-.33,6.32-1.12,4.32-1.68,7.85-1.68,10.6,0,.37.07.77.2,1.2.13.43.35.64.66.64s.79-.29,1.44-.86c.65-.57,1.01-.98,1.06-1.22.59-2.67.88-6.54.88-11.64,1.04.75,2.07,1.12,3.08,1.12,1.97,0,3.56-.83,4.78-2.48,1.21-1.65,1.82-3.55,1.82-5.7s-.41-3.72-1.24-4.72c-.83-1-1.79-1.5-2.9-1.5ZM42.22,20.37c-.83,1.08-1.63,1.62-2.4,1.62-1.41,0-2.49-.37-3.24-1.12,0-.43.03-1.01.08-1.76,1.63-5.3,3.08-7.96,4.36-7.96.75,0,1.34.47,1.78,1.42.44.95.66,2.21.66,3.8s-.41,2.92-1.24,4Z"/>
  <path class="cls-1" d="M103.38,12.83c-.15,0-.28.11-.4.32-.12.21-.29.56-.5,1.04-.8,1.87-1.76,3.53-2.88,5-.53.69-1.12,1.23-1.76,1.6-.64.37-1.36.56-2.16.56s-1.5-.38-2.1-1.14c-.6-.76-.95-1.66-1.06-2.7,1.95-.05,3.59-.62,4.94-1.7,1.35-1.08,2.02-2.42,2.02-4.02,0-.85-.29-1.53-.88-2.02s-1.33-.74-2.24-.74c-1.95,0-3.53.75-4.76,2.24-1.07,1.31-1.68,3.16-1.81,5.55-.57,1.11-1.13,2.07-1.71,2.87-.8,1.11-1.43,1.67-1.88,1.7-.16,0-.24-.3-.24-.9s.13-2.04.38-4.32c.25-2.28.38-4.01.38-5.18,0-.56-.22-1.03-.66-1.4-.44-.37-.91-.56-1.4-.56s-1.05.31-1.66.92c-.32.29-.62.59-.9.88-.28.29-.82.93-1.62,1.92-.8.99-1.25,1.59-1.36,1.8,0-.08.01-.27.04-.56.03-.29.05-.7.06-1.22.01-.52.02-1.07.02-1.66s-.22-1.08-.66-1.48c-.44-.4-.91-.6-1.42-.6-.8,0-1.69.77-2.68,2.32-.56.83-1.55,2.56-2.96,5.2,0-.59.07-1.64.2-3.16.53-1.25.8-2.59.8-4,0-.29-.04-.49-.12-.6-.08-.11-.27-.16-.58-.16s-.8.25-1.48.76c-.68.51-1.15.89-1.42,1.16-.27.27-.4,1.04-.4,2.32v2.36c0,.05,0,.12,0,.18-.68,1.38-1.45,2.64-2.31,3.78-.53.69-1.12,1.23-1.76,1.6-.64.37-1.36.56-2.16.56s-1.5-.38-2.1-1.14c-.6-.76-.95-1.66-1.06-2.7,1.95-.05,3.59-.62,4.94-1.7,1.35-1.08,2.02-2.42,2.02-4.02,0-.85-.29-1.53-.88-2.02s-1.33-.74-2.24-.74c-1.95,0-3.53.75-4.76,2.24-.9,1.09-1.46,2.57-1.7,4.42-.75,1.61-1.5,2.95-2.25,4-.8,1.11-1.43,1.67-1.88,1.7-.16,0-.24-.45-.24-1.34s.09-2.11.26-3.66c.17-1.55.26-2.45.26-2.72s-.08-.52-.24-.76c-.16-.24-.35-.36-.56-.36l-2.2.24c-.24,0-.41-.04-.52-.12.37-.64.56-1.28.56-1.92s-.21-1.22-.62-1.74c-.41-.52-.87-.78-1.36-.78s-.87.24-1.14.72c-.27.48-.4,1.04-.4,1.68s.16,1.21.48,1.72c.61.99,1.69,1.48,3.24,1.48-.45,1.52-.68,3.34-.68,5.48s.09,3.29.28,3.48c.53.43,1.32.64,2.36.64,1.26,0,2.78-1.72,4.55-5.15.08,1.27.49,2.43,1.29,3.45.88,1.13,2.07,1.7,3.56,1.7,2.59,0,4.76-1.43,6.52-4.28.23-.37.44-.73.63-1.08-.03.38-.06.79-.09,1.22-.15,1.8-.22,2.85-.22,3.16s.29.55.88.72c.59.17,1.2.26,1.84.26.43,0,.64-.37.64-1.12l-.04-1.24c0-.83.06-1.6.18-2.32.12-.72.77-1.99,1.94-3.82,1.17-1.83,1.91-2.74,2.22-2.74s.46.47.46,1.42-.08,2.58-.24,4.9c-.16,2.32-.24,3.63-.24,3.94s.27.55.82.72c.55.17,1.13.26,1.74.26.4,0,.6-.37.6-1.12,0-3.01.08-4.97.24-5.88.08-.48.7-1.31,1.86-2.48s1.91-1.76,2.26-1.76c.29,0,.44.44.44,1.32s-.07,2.21-.22,3.98c-.15,1.77-.22,3.05-.22,3.84s.09,1.27.28,1.46c.53.43,1.25.64,2.16.64,1.17,0,2.56-1.5,4.17-4.46.17,1,.58,1.92,1.23,2.76.88,1.13,2.07,1.7,3.56,1.7,2.59,0,4.76-1.43,6.52-4.28,1.63-2.67,2.44-4.66,2.44-6,0-.21-.07-.32-.22-.32ZM93.56,12.25c.64-1.29,1.43-1.94,2.36-1.94.77,0,1.16.6,1.16,1.8s-.37,2.17-1.1,2.92c-.73.75-1.89,1.25-3.46,1.52.05-1.57.4-3.01,1.04-4.3ZM60.17,12.25c.64-1.29,1.43-1.94,2.36-1.94.77,0,1.16.6,1.16,1.8s-.37,2.17-1.1,2.92c-.73.75-1.89,1.25-3.46,1.52.05-1.57.4-3.01,1.04-4.3Z"/>
  <path class="cls-1" d="M8.69,36.14v-.02c.74-.27,1.18-.86,1.18-1.54,0-.55-.22-.96-.58-1.23-.44-.35-1.02-.51-1.92-.51-.63,0-1.26.06-1.65.15v6.88c.3.04.78.08,1.4.08,1.14,0,1.93-.21,2.42-.65.35-.34.59-.8.59-1.4,0-1.04-.78-1.59-1.44-1.75ZM6.63,33.6c.15-.03.38-.06.8-.06.91,0,1.54.32,1.54,1.14,0,.67-.56,1.17-1.51,1.17h-.82v-2.25ZM7.39,39.24c-.32,0-.58-.01-.76-.04v-2.67h.75c.99,0,1.8.39,1.8,1.35,0,1.02-.86,1.36-1.79,1.36Z"/>
  <polygon class="cls-1" points="13.28 36.61 16 36.61 16 35.86 13.28 35.86 13.28 33.65 16.16 33.65 16.16 32.9 12.38 32.9 12.38 39.89 16.31 39.89 16.31 39.13 13.28 39.13 13.28 36.61"/>
  <path class="cls-1" d="M20.44,32.84c-.72,0-1.37.06-1.92.15v6.88c.46.05,1,.08,1.64.08,1.36,0,2.44-.35,3.09-1.01.65-.64,1.01-1.58,1.01-2.72s-.36-1.94-.99-2.51c-.61-.57-1.54-.87-2.83-.87ZM20.33,39.22c-.35,0-.68-.01-.91-.05v-5.52c.24-.05.59-.09,1.06-.09,1.91,0,2.84,1.05,2.83,2.7,0,1.89-1.05,2.97-2.98,2.97Z"/>
  <path class="cls-1" d="M28.55,35.92c-.96-.37-1.39-.69-1.39-1.35,0-.48.36-1.05,1.32-1.05.63,0,1.1.21,1.33.33l.25-.74c-.31-.18-.83-.34-1.55-.34-1.36,0-2.26.81-2.26,1.9,0,.98.71,1.58,1.85,1.98.94.36,1.32.74,1.32,1.39,0,.71-.54,1.19-1.46,1.19-.62,0-1.21-.21-1.62-.46l-.23.76c.37.25,1.11.45,1.78.45,1.65,0,2.45-.93,2.45-2.01s-.6-1.6-1.78-2.05Z"/>
  <path class="cls-1" d="M41.67,32.78c-1.87,0-3.25,1.45-3.25,3.67s1.3,3.55,3.14,3.55,3.25-1.28,3.25-3.68c0-2.07-1.23-3.54-3.14-3.54ZM41.62,39.26c-1.42,0-2.23-1.34-2.23-2.83s.75-2.91,2.24-2.91,2.23,1.45,2.23,2.84c0,1.59-.81,2.9-2.24,2.9Z"/>
  <polygon class="cls-1" points="47.02 39.89 47.92 39.89 47.92 36.72 50.57 36.72 50.57 35.98 47.92 35.98 47.92 33.65 50.78 33.65 50.78 32.9 47.02 32.9 47.02 39.89"/>
  <path class="cls-1" d="M58.43,35.92c-.96-.37-1.39-.69-1.39-1.35,0-.48.36-1.05,1.32-1.05.63,0,1.1.21,1.33.33l.25-.74c-.31-.18-.83-.34-1.55-.34-1.36,0-2.26.81-2.26,1.9,0,.98.71,1.58,1.85,1.98.94.36,1.32.74,1.32,1.39,0,.71-.54,1.19-1.46,1.19-.62,0-1.21-.21-1.62-.46l-.23.76c.37.25,1.11.45,1.78.45,1.65,0,2.45-.93,2.45-2.01s-.6-1.6-1.78-2.05Z"/>
  <path class="cls-1" d="M68.54,36.42c-.22.87-.42,1.65-.56,2.42h-.02c-.1-.74-.29-1.57-.49-2.4l-.85-3.55h-.94l-.93,3.53c-.24.9-.46,1.73-.57,2.43h-.02c-.12-.67-.31-1.55-.52-2.42l-.83-3.54h-.95l1.77,6.99h.94l1-3.64c.26-.9.42-1.59.54-2.28h.02c.09.71.24,1.39.46,2.28l.88,3.64h.94l1.98-6.99h-.92l-.92,3.53Z"/>
  <polygon class="cls-1" points="73.19 36.61 75.91 36.61 75.91 35.86 73.19 35.86 73.19 33.65 76.07 33.65 76.07 32.9 72.29 32.9 72.29 39.89 76.22 39.89 76.22 39.13 73.19 39.13 73.19 36.61"/>
  <path class="cls-1" d="M80.35,32.84c-.72,0-1.37.06-1.92.15v6.88c.46.05,1,.08,1.64.08,1.36,0,2.44-.35,3.09-1.01.65-.64,1.01-1.58,1.01-2.72s-.36-1.94-.98-2.51c-.61-.57-1.54-.87-2.83-.87ZM80.24,39.22c-.35,0-.68-.01-.91-.05v-5.52c.24-.05.59-.09,1.06-.09,1.91,0,2.84,1.05,2.83,2.7,0,1.89-1.05,2.97-2.98,2.97Z"/>
  <polygon class="cls-1" points="87.27 36.61 89.99 36.61 89.99 35.86 87.27 35.86 87.27 33.65 90.14 33.65 90.14 32.9 86.37 32.9 86.37 39.89 90.3 39.89 90.3 39.13 87.27 39.13 87.27 36.61"/>
  <path class="cls-1" d="M96.9,35.82c0,1.09.02,1.94.1,2.87h-.02c-.33-.71-.74-1.44-1.25-2.26l-2.24-3.54h-.99v6.99h.85v-2.99c0-1.16-.02-2-.07-2.88h.03c.35.75.82,1.55,1.31,2.32l2.22,3.55h.91v-6.99h-.85v2.92Z"/>
</svg>