<?xml version="1.0" encoding="UTF-8"?>
<svg id="Lager_1" data-name="Lager 1"
  xmlns="http://www.w3.org/2000/svg" viewBox="0 0 194.06 230.97">
  <defs>
    <style>
      .cls-1 {
        fill: #000;
        stroke-width: 0px;
      }
    </style>
  </defs>
  <path class="cls-1" d="M13.92,220.23c-.63-.49-1.31-.9-2.04-1.22-.73-.32-1.42-.59-2.06-.83-.41-.13-.8-.28-1.17-.43-.38-.15-.72-.34-1.01-.57-.3-.22-.54-.5-.73-.83-.18-.33-.28-.73-.28-1.22,0-.87.27-1.62.81-2.26.54-.64,1.37-.96,2.49-.96.44,0,.87.05,1.26.16.4.11.75.24,1.07.39.32.16.6.32.86.51.25.18.45.35.61.51.23-.29.46-.58.68-.87s.45-.58.68-.87c-1.02-.87-1.95-1.44-2.78-1.71-.83-.27-1.63-.41-2.41-.41-1.06,0-1.96.16-2.7.49s-1.32.75-1.77,1.28c-.44.52-.76,1.1-.96,1.74-.19.64-.28,1.28-.26,1.91.02.85.18,1.57.49,2.16.31.59.68,1.08,1.12,1.48s.89.71,1.38.94c.48.23.9.42,1.25.55.44.17.97.36,1.57.55s1.17.45,1.73.77c.55.32,1.02.72,1.39,1.2s.57,1.11.57,1.88c0,.56-.11,1.05-.32,1.48-.21.42-.5.78-.86,1.06-.36.28-.77.49-1.23.64-.46.14-.95.22-1.45.22-.56,0-1.08-.08-1.57-.23-.48-.15-.93-.36-1.33-.61-.41-.25-.78-.53-1.13-.83-.35-.3-.65-.58-.9-.86l-1.51,1.51c.25.39.6.77,1.06,1.16.45.39.97.74,1.55,1.06s1.22.58,1.91.78c.7.2,1.41.3,2.15.3.81,0,1.58-.13,2.32-.39.73-.26,1.38-.64,1.93-1.13.55-.49.99-1.09,1.31-1.78.32-.7.48-1.48.48-2.35,0-1-.21-1.87-.62-2.58-.42-.71-.94-1.32-1.57-1.81Z"/>
  <path class="cls-1" d="M27.72,208.82c-1.51,3.56-3.01,7.09-4.49,10.61-1.49,3.52-2.99,7.06-4.5,10.61h2.41c.56-1.33,1.13-2.67,1.7-4.02.57-1.34,1.14-2.68,1.7-4.02h6.38c.56,1.33,1.12,2.67,1.7,4.02s1.14,2.68,1.7,4.02h2.41c-1.51-3.56-3.01-7.09-4.49-10.61-1.49-3.52-2.99-7.06-4.5-10.61ZM25.52,219.72c.39-.93.78-1.85,1.19-2.75.41-.91.74-1.85,1.01-2.81l.26.96c.33.77.65,1.54.97,2.3.32.76.64,1.53.97,2.31h-4.41Z"/>
  <path class="cls-1" d="M51.86,221.46c-.38-.42-.82-.77-1.33-1.04-.51-.27-1.04-.46-1.58-.58,1.16-.33,2.03-.95,2.6-1.86.57-.91.86-1.96.86-3.16,0-.89-.16-1.66-.46-2.31-.31-.65-.74-1.17-1.29-1.58-.55-.41-1.22-.71-2-.9-.78-.19-1.65-.29-2.6-.29h-5.31v20.3h5.83c.83,0,1.64-.11,2.44-.33.79-.22,1.49-.55,2.1-.99.61-.44,1.1-.98,1.46-1.62s.55-1.41.55-2.28c0-.7-.12-1.32-.35-1.89-.23-.56-.54-1.05-.91-1.48ZM43.14,212.04h3.07c1.12,0,2.03.24,2.73.72.7.48,1.04,1.3,1.04,2.44,0,1.04-.33,1.88-1,2.52-.67.64-1.57.96-2.71.96h-3.13v-6.64ZM50.37,225.9c-.23.41-.55.75-.94,1.03s-.86.49-1.38.62c-.52.14-1.08.2-1.68.2h-3.22v-6.79h2.81c.6,0,1.19.07,1.77.2.58.14,1.09.34,1.52.62.44.28.79.64,1.06,1.09.27.45.41.97.41,1.57,0,.56-.12,1.04-.35,1.45Z"/>
  <rect class="cls-1" x="57.69" y="209.75" width="2.41" height="20.3"/>
  <path class="cls-1" d="M78.68,214.2c.73-.74,1.57-1.33,2.52-1.75.96-.43,1.99-.64,3.09-.64.73,0,1.43.1,2.09.29.66.19,1.29.46,1.88.81.21-.33.43-.65.67-.97s.45-.64.67-.97c-.79-.46-1.63-.82-2.51-1.07-.88-.25-1.81-.38-2.8-.38-1.43,0-2.77.28-4.03.83-1.26.55-2.35,1.29-3.29,2.23-.94.94-1.68,2.04-2.22,3.31-.54,1.27-.81,2.61-.81,4.04s.27,2.77.81,4.03c.54,1.26,1.28,2.35,2.22,3.29.94.94,2.04,1.68,3.29,2.22,1.26.54,2.6.81,4.03.81.99,0,1.92-.13,2.8-.39.88-.26,1.71-.61,2.48-1.06v-5.74c0-.6-.09-1.04-.28-1.32s-.56-.42-1.12-.42h-4v2.29h2.32c.31,0,.5.06.57.19.07.13.1.35.1.68v2.96c-.91.35-1.87.52-2.87.52-1.1,0-2.13-.21-3.09-.64-.96-.42-1.8-1-2.52-1.73s-1.29-1.58-1.71-2.57c-.42-.99-.62-2.03-.62-3.13s.21-2.15.62-3.13.99-1.85,1.71-2.6Z"/>
  <path class="cls-1" d="M102.48,208.82c-1.51,3.56-3.01,7.09-4.5,10.61-1.49,3.52-2.99,7.06-4.5,10.61h2.41c.56-1.33,1.13-2.67,1.7-4.02s1.14-2.68,1.7-4.02h6.38c.56,1.33,1.13,2.67,1.7,4.02s1.14,2.68,1.7,4.02h2.41c-1.51-3.56-3.01-7.09-4.5-10.61-1.49-3.52-2.99-7.06-4.5-10.61ZM100.28,219.72c.39-.93.78-1.85,1.19-2.75.41-.91.74-1.85,1.01-2.81l.26.96c.33.77.65,1.54.97,2.3.32.76.64,1.53.97,2.31h-4.41Z"/>
  <path class="cls-1" d="M126.2,218.9c.72-.98,1.09-2.19,1.09-3.64,0-.99-.23-1.83-.7-2.52-.46-.7-1.04-1.27-1.74-1.71-.7-.44-1.45-.77-2.25-.97-.8-.2-1.53-.3-2.19-.3h-4.79v20.3h2.41v-9.05h2.46l4.26,9.05h2.61l-4.35-9.22c1.39-.31,2.45-.95,3.18-1.93ZM120.56,218.68h-2.52v-6.67h2.55c.6,0,1.17.09,1.7.26.53.17.99.41,1.36.71s.68.65.9,1.04c.22.4.33.81.33,1.23,0,.37-.07.75-.2,1.16-.14.41-.37.77-.7,1.1s-.77.6-1.32.83c-.55.22-1.25.33-2.1.33Z"/>
  <path class="cls-1" d="M144.15,212.5c-.93-.89-2.01-1.57-3.25-2.04-1.24-.47-2.55-.71-3.94-.71h-4.73v20.3h3.74c2.05,0,3.78-.31,5.21-.94s2.58-1.43,3.47-2.41c.89-.98,1.53-2.06,1.93-3.26.4-1.2.59-2.37.59-3.51,0-1.57-.27-2.97-.81-4.22-.54-1.25-1.28-2.31-2.2-3.2ZM144.13,223.13c-.42.96-.99,1.78-1.71,2.46s-1.58,1.21-2.57,1.58c-.99.37-2.05.55-3.19.55h-2.03v-15.69h2.03c1.14,0,2.2.18,3.19.55.99.37,1.84.89,2.57,1.58.72.69,1.29,1.51,1.71,2.48.42.97.62,2.05.62,3.25s-.21,2.28-.62,3.23Z"/>
  <polygon class="cls-1" points="153.8 220.97 162.77 220.97 162.77 218.68 153.8 218.68 153.8 212.04 163.9 212.04 163.9 209.75 151.4 209.75 151.4 230.05 164.3 230.05 164.3 227.76 153.8 227.76 153.8 220.97"/>
  <path class="cls-1" d="M184.7,224.74c.02.15.03.31.04.46,0,.15.02.31.04.46-.1-.13-.19-.26-.28-.38s-.18-.24-.28-.38c-2.49-2.71-4.97-5.39-7.42-8.05-2.46-2.66-4.93-5.34-7.42-8.05v21.23h2.41v-14.67c-.02-.15-.03-.31-.04-.46,0-.16-.02-.31-.04-.46.1.13.19.26.28.38.09.12.18.24.28.38,2.49,2.65,4.97,5.28,7.42,7.89,2.46,2.61,4.93,5.24,7.42,7.89v-21.23h-2.41v14.99Z"/>
  <path class="cls-1" d="M97.03,0C43.53,0,0,43.53,0,97.03s43.53,97.03,97.03,97.03,97.03-43.53,97.03-97.03S150.53,0,97.03,0ZM162.84,159.86V48.92h-6v116.68c-16.01,13.98-36.94,22.47-59.81,22.47-18.9,0-36.47-5.79-51.03-15.69h66.99c9.64-.12,17.47-8.07,17.46-17.71l-.04-31.63h12.3v-6h-12.31l-.08-67.42h-18.21c-11.31,0-20.5,9.2-20.5,20.5v33.68c0,10.61,8.63,19.24,19.24,19.24h13.57l.04,31.64c0,6.37-5.17,11.62-11.5,11.7H38.13c-13.25-11.27-23.24-26.26-28.34-43.34h34.34c11.25,0,20.41-9.15,20.41-20.41v-61.72c0-7.67,6.24-13.91,13.91-13.91h51.15v-6h-51.15c-10.98,0-19.91,8.93-19.91,19.91v61.72c0,7.94-6.46,14.41-14.41,14.41H8.22c-1.45-6.44-2.22-13.13-2.22-20,0-20.98,7.14-40.33,19.11-55.74v58.7h6V34.31C47.71,16.88,71.12,6,97.03,6c50.19,0,91.03,40.84,91.03,91.03,0,24.34-9.6,46.48-25.22,62.83ZM124.4,117.04h-13.56c-7.3,0-13.24-5.94-13.24-13.24v-33.68c0-8,6.51-14.5,14.5-14.5h12.22l.07,61.42Z"/>
</svg>