<?xml version="1.0" encoding="UTF-8"?>
<svg id="Lager_1"
    xmlns="http://www.w3.org/2000/svg" viewBox="0 0 83.42 81.27">
    <defs>
        <style>.cls-1{stroke-width:0px;}</style>
    </defs>
    <rect class="cls-1" x="16.04" y="56.52" width=".64" height="24.64"/>
    <rect class="cls-1" x="39.92" y="56.52" width=".64" height="24.64"/>
    <polygon class="cls-1" points="60.49 79.85 44.08 56.52 43.53 56.52 43.53 81.16 44.17 81.16 44.17 57.83 60.59 81.16 61.13 81.16 61.13 56.52 60.49 56.52 60.49 79.85"/>
    <polygon class="cls-1" points="36.71 56.52 20.29 79.85 20.29 56.52 19.65 56.52 19.65 81.16 20.2 81.16 37.53 56.52 37.25 56.52 36.71 56.52"/>
    <path class="cls-1" d="m66.88,60.48c.99-1.07,2.15-1.9,3.49-2.5,1.33-.6,2.78-.9,4.34-.9,1.41,0,2.72.22,3.95.67,1.23.45,2.35,1.21,3.38,2.29l.38-.49c-.96-1.06-2.11-1.84-3.44-2.36-1.33-.52-2.76-.77-4.27-.77-1.66,0-3.2.31-4.61.93-1.41.62-2.63,1.5-3.68,2.62-1.05,1.13-1.86,2.44-2.43,3.94-.58,1.5-.86,3.15-.86,4.93s.29,3.43.86,4.93c.58,1.5,1.39,2.82,2.43,3.94,1.04,1.13,2.27,2,3.68,2.62,1.41.62,2.94.93,4.61.93,1.51,0,2.94-.26,4.27-.79,1.33-.53,2.48-1.32,3.44-2.38v-9.01h-.61v8.7c-.93.96-1.96,1.67-3.12,2.1-1.25.47-2.58.7-3.98.7-1.56,0-3-.3-4.34-.9-1.33-.6-2.5-1.43-3.49-2.5-.99-1.07-1.76-2.31-2.3-3.73-.54-1.42-.82-2.96-.82-4.63s.27-3.21.82-4.63c.54-1.42,1.31-2.66,2.3-3.73Z"/>
    <path class="cls-1" d="m71.54.2h-5.29v15.59L54.74.2h-4.43v25.7h-4.19v25.9h5.36v-7.45h4.66c2.07,0,3.86-.37,5.36-1.11,1.5-.74,2.66-1.8,3.47-3.18.82-1.38,1.22-3.02,1.22-4.91s-.41-3.57-1.22-4.95c-.82-1.38-1.97-2.44-3.47-3.18-1.5-.74-3.29-1.11-5.36-1.11h-.54v-15.6l11.54,15.6,3.51,4.8v21.1h5.36v-21.1h7.41v-4.8h-11.88V.2Zm-15.7,30.5c1.65,0,2.89.39,3.7,1.16.82.78,1.22,1.87,1.22,3.27s-.41,2.46-1.22,3.24c-.82.78-2.05,1.16-3.7,1.16h-4.37v-8.84h4.37Z"/>
    <path class="cls-1" d="m22.1,47.32l-3.44-3.44c-.79,1-1.68,1.75-2.65,2.24-.97.49-2.03.73-3.18.73-1.08,0-2.07-.19-2.98-.57-.9-.38-1.69-.93-2.35-1.65-.66-.72-1.17-1.56-1.54-2.54-.36-.98-.55-2.07-.55-3.26s.18-2.28.55-3.26c.36-.98.88-1.83,1.54-2.54.66-.72,1.44-1.27,2.35-1.65.9-.38,1.9-.57,2.98-.57,1.15,0,2.2.24,3.18.73.86.44,1.66,1.08,2.38,1.9l.27.35v-15.82c-.79,1-1.68,1.74-2.65,2.23-.97.49-2.03.73-3.18.73-1.08,0-2.07-.19-2.98-.57-.9-.38-1.69-.93-2.35-1.64-.66-.71-1.17-1.56-1.54-2.54-.36-.98-.55-2.06-.55-3.25s.18-2.27.55-3.25c.36-.98.88-1.82,1.54-2.54.66-.71,1.44-1.26,2.35-1.64.9-.38,1.9-.57,2.98-.57,1.15,0,2.2.24,3.18.73.97.49,1.85,1.22,2.65,2.2l3.44-3.43c-1.1-1.45-2.46-2.55-4.09-3.3-1.62-.75-3.43-1.13-5.44-1.13-1.81,0-3.47.32-4.99.95-1.52.63-2.85,1.53-3.99,2.7-1.14,1.17-2.02,2.54-2.65,4.11-.63,1.57-.94,3.3-.94,5.18s.31,3.61.94,5.18c.63,1.57,1.51,2.94,2.63,4.11,1.12,1.17,2.45,2.07,3.99,2.7,1.53.63,3.19.95,4.98.95.01,0,.02,0,.03,0h0c-1.81,0-3.47.32-4.99.95-1.52.63-2.85,1.53-3.99,2.7-1.14,1.17-2.02,2.54-2.65,4.12-.63,1.58-.94,3.31-.94,5.19s.31,3.62.94,5.19c.63,1.58,1.51,2.95,2.63,4.12,1.12,1.17,2.45,2.07,3.99,2.7,1.53.63,3.19.95,4.98.95,2.03,0,3.85-.38,5.47-1.15,1.62-.76,2.98-1.87,4.09-3.33Z"/>
    <rect class="cls-1" x="75.51" y="14.34" width="7.9" height="7.91"/>
    <path class="cls-1" d="m29.7,40.98h12.17v-4.67h-12.17v-5.63h12.17v-7.08c.59-.42,1.15-.88,1.66-1.4,1.14-1.16,2.02-2.52,2.66-4.11.64-1.58.96-3.3.96-5.16s-.32-3.6-.96-5.16c-.64-1.56-1.53-2.92-2.66-4.09-1.14-1.17-2.47-2.07-4-2.72-1.53-.64-3.21-.96-5.04-.96s-3.48.32-5.03.96c-1.54.64-2.89,1.55-4.04,2.72-1.15,1.17-2.03,2.54-2.66,4.11-.63,1.57-.94,3.29-.94,5.14s.31,3.57.94,5.14c.63,1.57,1.51,2.94,2.65,4.11,1.14,1.17,2.48,2.07,4.04,2.71,1.55.64,3.25.96,5.08.96.02,0,.03,0,.05,0h0s-10.2,0-10.2,0v25.93h17.93v-4.82h-12.6v-6Zm4.79-20.05c-1.04,0-2-.19-2.88-.57-.88-.38-1.65-.93-2.3-1.64-.65-.71-1.16-1.57-1.52-2.55-.36-.99-.55-2.07-.55-3.23s.18-2.27.55-3.25c.36-.98.88-1.82,1.54-2.54.66-.71,1.43-1.26,2.3-1.64.87-.38,1.82-.57,2.86-.57s2,.19,2.88.57c.88.38,1.65.93,2.3,1.64.65.71,1.16,1.56,1.52,2.54.36.98.55,2.06.55,3.25s-.18,2.27-.55,3.25c-.36.98-.88,1.82-1.54,2.54-.66.71-1.43,1.26-2.3,1.64-.87.38-1.83.57-2.86.57Z"/>
    <polygon class="cls-1" points="2.55 56.52 1.91 56.52 1.91 81.16 13.31 81.16 13.31 80.52 2.55 80.49 2.55 56.52"/>
</svg>